<svg id="Solid" height="512" viewBox="0 0 64 64" width="512" xmlns="http://www.w3.org/2000/svg"><path d="m32 62c14.612 0 26.5-11.888 26.5-26.5 0-14.278-11.349-25.955-25.5-26.481v-2.019c0-1.906-1.059-3.619-2.763-4.472-1.705-.853-3.711-.673-5.237.472l-12 9c-1.252.939-2 2.435-2 4s.748 3.061 2 4l12 9c1.476 1.107 3.583 1.298 5.236.472 1.705-.853 2.764-2.566 2.764-4.472v-1.96c6.427.511 11.5 5.904 11.5 12.46 0 6.893-5.607 12.5-12.5 12.5s-12.5-5.607-12.5-12.5c0-3.86-3.14-7-7-7s-7 3.14-7 7c0 14.612 11.888 26.5 26.5 26.5zm-19.5-31.5c2.757 0 5 2.243 5 5 0 7.995 6.505 14.5 14.5 14.5s14.5-6.505 14.5-14.5-6.505-14.5-14.5-14.5c-.552 0-1 .448-1 1v3c0 1.144-.635 2.172-1.658 2.683-1.001.501-2.25.387-3.142-.283l-12-9c-.751-.563-1.2-1.461-1.2-2.4s.449-1.836 1.2-2.4l12-9c.916-.687 2.12-.794 3.142-.283 1.023.511 1.658 1.539 1.658 2.683v3c0 .552.448 1 1 1 13.509 0 24.5 10.991 24.5 24.5s-10.991 24.5-24.5 24.5-24.5-10.991-24.5-24.5c0-2.757 2.243-5 5-5z"/><path d="m32 58c12.407 0 22.5-10.093 22.5-22.5s-10.093-22.5-22.5-22.5h-3v-6c0-.379-.214-.725-.553-.895-.34-.17-.744-.133-1.047.095l-12 9c-.252.189-.4.485-.4.8s.148.611.4.8l12 9c.303.228.708.264 1.047.095.339-.17.553-.516.553-.895v-6h3c9.098 0 16.5 7.402 16.5 16.5s-7.402 16.5-16.5 16.5-16.5-7.402-16.5-16.5c0-1.654-1.346-3-3-3s-3 1.346-3 3c0 12.407 10.093 22.5 22.5 22.5z"/></svg>