<?xml version="1.0" encoding="iso-8859-1"?>
<!-- Generator: Adobe Illustrator 19.0.0, SVG Export Plug-In . SVG Version: 6.00 Build 0)  -->
<svg version="1.1" id="Capa_1" xmlns="http://www.w3.org/2000/svg" xmlns:xlink="http://www.w3.org/1999/xlink" x="0px" y="0px"
	 viewBox="0 0 512 512" style="enable-background:new 0 0 512 512;" xml:space="preserve">
<rect x="60.082" y="336.98" style="fill:#78F4DF;" width="245.551" height="167.184"/>
<g>
	<rect x="256" y="425.796" style="fill:#FFFFFF;" width="15.673" height="15.673"/>
	<rect x="256" y="457.143" style="fill:#FFFFFF;" width="15.673" height="15.673"/>
</g>
<rect x="128" y="60.082" style="fill:#00AA95;" width="245.551" height="198.531"/>
<rect x="159.347" y="91.429" style="fill:#FFFFFF;" width="182.857" height="135.837"/>
<g>
	<polygon style="fill:#00DDC2;" points="305.633,336.98 60.082,336.98 128,258.612 373.551,258.612 	"/>
	<rect x="60.082" y="7.837" style="fill:#00DDC2;" width="261.224" height="52.245"/>
</g>
<rect x="148.898" y="26.122" style="fill:#FFFFFF;" width="83.592" height="15.673"/>
<g>
	<rect x="321.306" y="7.837" style="fill:#00AA95;" width="52.245" height="52.245"/>
	<polygon style="fill:#00AA95;" points="305.633,504.163 305.633,336.98 373.551,258.612 373.551,7.837 451.918,7.837 
		451.918,504.163 	"/>
</g>
<circle style="fill:#FF6243;" cx="167.967" cy="224.653" r="20.898"/>
<path style="fill:#E2472D;" d="M176.555,205.616c1.185,2.623,1.861,5.523,1.861,8.588c0,11.542-9.356,20.898-20.898,20.898
	c-3.065,0-5.966-0.676-8.588-1.861c3.278,7.254,10.56,12.31,19.037,12.31c11.542,0,20.898-9.356,20.898-20.898
	C188.865,216.176,183.809,208.894,176.555,205.616z"/>
<circle style="fill:#FF6243;" cx="226.482" cy="297.796" r="13.061"/>
<circle style="fill:#FFDA44;" cx="273.502" cy="297.796" r="13.061"/>
<polygon points="167.184,99.265 334.367,99.265 334.367,219.429 209.68,219.429 209.68,235.102 350.041,235.102 350.041,83.592 
	151.51,83.592 151.51,183.756 167.184,183.756 "/>
<path d="M160.131,252.293v45.503h15.673v-45.503c12.046-3.421,20.898-14.513,20.898-27.64c0-15.845-12.89-28.735-28.735-28.735
	s-28.735,12.89-28.735,28.735C139.233,237.78,148.085,248.872,160.131,252.293z M167.967,211.592
	c7.202,0,13.061,5.859,13.061,13.061c0,7.202-5.859,13.061-13.061,13.061c-7.202,0-13.061-5.859-13.061-13.061
	C154.906,217.451,160.765,211.592,167.967,211.592z"/>
<path d="M226.482,318.694c11.523,0,20.898-9.375,20.898-20.898c0-11.523-9.375-20.898-20.898-20.898s-20.898,9.375-20.898,20.898
	C205.584,309.319,214.958,318.694,226.482,318.694z M226.482,292.571c2.881,0,5.224,2.344,5.224,5.224s-2.344,5.224-5.224,5.224
	c-2.881,0-5.225-2.344-5.225-5.224S223.601,292.571,226.482,292.571z"/>
<path d="M273.502,318.694c11.523,0,20.898-9.375,20.898-20.898c0-11.523-9.375-20.898-20.898-20.898
	c-11.523,0-20.898,9.375-20.898,20.898C252.604,309.319,261.979,318.694,273.502,318.694z M273.502,292.571
	c2.881,0,5.225,2.344,5.225,5.224s-2.344,5.224-5.225,5.224c-2.881,0-5.224-2.344-5.224-5.224S270.621,292.571,273.502,292.571z"/>
<path d="M52.245,0v67.918h67.918v187.77l-67.918,78.367V512h253.388h7.837h146.286V0H52.245z M329.143,15.673h36.571v36.571h-36.571
	V15.673z M67.918,52.245V15.673h245.551v36.571H120.163H67.918z M365.714,67.918v182.857H188.865v15.673h167.523l-54.335,62.694
	H77.244l54.335-62.694h15.491v-15.673h-11.233V67.918H365.714z M67.918,496.327v-151.51h229.878v151.51H67.918z M444.082,496.327
	H313.469V339.903l67.918-78.367V15.673h62.694V496.327z"/>
<rect x="256" y="368.327" width="15.673" height="41.796"/>
<g>
</g>
<g>
</g>
<g>
</g>
<g>
</g>
<g>
</g>
<g>
</g>
<g>
</g>
<g>
</g>
<g>
</g>
<g>
</g>
<g>
</g>
<g>
</g>
<g>
</g>
<g>
</g>
<g>
</g>
</svg>
