<svg enable-background="new 0 0 512 512" height="512" viewBox="0 0 512 512" width="512" xmlns="http://www.w3.org/2000/svg"><g id="_x39_36_x2C__Arrow_x2C__Left_x2C__Navigation"><g><g><path d="m145.997 82.698c0-8.271-6.729-15-15-15s-15 6.729-15 15 6.728 15 15 15 15-6.729 15-15z"/><path d="m185.997 407.698c0-11.028-8.972-20-20-20s-20 8.972-20 20 8.972 20 20 20 20-8.971 20-20z"/><path d="m375.998 282.698c0 13.785 11.215 25 25 25s25-11.215 25-25-11.215-25-25-25-25 11.215-25 25z"/><path d="m360.776 437.321c11.725-11.723 11.727-30.701.001-42.427l-138.662-138.66c-1.955-1.954-1.95-5.122 0-7.071l138.662-138.661c11.724-11.725 11.725-30.7 0-42.427-11.697-11.696-30.729-11.696-42.427 0l-184.623 184.623 184.624 184.623c11.725 11.725 30.701 11.725 42.425 0z"/><circle cx="430.995" cy="412.701" r="9.999"/><circle cx="431" cy="192.701" r="10"/><circle cx="250.995" cy="72.695" r="10"/><circle cx="80.999" cy="212.695" r="10"/><circle cx="100.995" cy="372.701" r="10"/><circle cx="240.999" cy="442.695" r="10"/></g></g></g></svg>